<svg width="192" height="167" viewBox="0 0 192 167" fill="none" xmlns="http://www.w3.org/2000/svg" version="1.1" xmlns:xlink="http://www.w3.org/1999/xlink">
  <g transform="translate(0, 39.5)">
    <path d="M96.0957 76.4307L102.196 76.457L96.0957 87.5225V87.8701L96 87.6963L95.9043 87.8701V87.5225L89.8037 76.457L95.9043 76.4307H96.0957ZM108.488 62.7031L104.484 71.0918H87.5156L83.5117 62.7031H108.488ZM54.2744 67.2783H36.0361V54.8857L37.916 53.0049L40.5303 51.1221L76.457 43.4453L54.2744 67.2783ZM151.47 51.1221L154.084 53.0049L155.964 54.8857V67.2783H137.726L115.543 43.4453L151.47 51.1221ZM112.438 50.3096L110.396 57.9365H81.6045L79.5615 50.3096H112.438ZM84.8457 28.3828L76.457 30.6309L14.7969 14.1094L2.57812 21.1641V41.374L15.0625 46.4316L13.0137 48.3799L2.57812 44.2637L0 43.4453V19.8145L11.4395 13.21L34.3193 0L84.8457 28.3828ZM180.561 13.21L192 19.8145V43.4453L189.422 44.2637L178.986 48.3799L176.938 46.4316L189.422 41.374V21.1641L177.203 14.1094L115.543 30.6309L107.154 28.3828L157.681 0L180.561 13.21ZM79.6738 38.8594L43.8535 47.0684L50.1445 40.7764L84.8457 32.0322L79.6738 38.8594ZM141.855 40.7764L148.147 47.0684L112.326 38.8594L107.154 32.0322L141.855 40.7764ZM109.633 45.7334H82.3672L92.4727 28.2305L96 28.3779L99.5273 28.2305L109.633 45.7334ZM102.769 21.71L99.5273 24.9512H92.4727L89.2314 21.71H102.769ZM100.29 6.67285L109.633 16.0156L107.154 18.4941H84.8457L82.3672 16.0156L91.71 6.67285H100.29Z" fill="#EAD166"></path>
  </g>
</svg>
