<svg width="115" height="50" viewBox="0 0 115 50" fill="none" xmlns="http://www.w3.org/2000/svg">
<g clip-path="url(#clip0_157_605)">
<path d="M9.12914 36.1702C7.78453 36.1702 6.65222 36.0284 5.73222 35.7624C4.81222 35.4965 4.05145 35.2305 3.44991 34.9823C2.84837 34.7163 2.3176 34.5745 1.83991 34.5745C1.36222 34.5745 1.20299 34.7163 0.990679 34.9823C0.760679 35.2305 0.601449 35.6206 0.512987 36.1348H0.141449C0.194526 35.5851 0.22991 34.9468 0.247603 34.1844C0.247603 33.4043 0.282987 32.4113 0.282987 31.1879C0.282987 29.9645 0.318372 28.422 0.318372 26.5603H0.68991C0.866833 29.3972 1.64529 31.6489 3.04299 33.2801C4.44068 34.9291 6.26299 35.7447 8.5276 35.7447C10.7922 35.7447 11.5884 35.2482 12.6322 34.2553C13.6761 33.2624 14.2068 31.9326 14.2068 30.266C14.2068 28.5993 13.9945 28.4397 13.5699 27.695C13.1453 26.9149 12.473 26.2057 11.553 25.5674C10.6507 24.9113 9.48299 24.2908 8.01453 23.6702C6.29837 22.9433 4.90068 22.1809 3.80376 21.383C2.74222 20.5674 1.94606 19.6631 1.41529 18.6879C0.91991 17.695 0.672218 16.5957 0.672218 15.4078C0.672218 14.2199 0.972987 12.8546 1.57453 11.8617C2.19376 10.8333 3.06068 10.0532 4.19299 9.50355C5.34299 8.9539 6.66991 8.68794 8.22683 8.68794C9.78376 8.68794 10.4561 8.81206 11.2522 9.06028C12.0484 9.30851 12.7207 9.57447 13.2691 9.84042C13.8176 10.0887 14.2953 10.2128 14.7199 10.2128C15.1445 10.2128 15.3922 10.0887 15.6222 9.84042C15.8522 9.5922 16.0114 9.21986 16.0999 8.7234H16.4715C16.4184 9.25532 16.383 9.84043 16.3653 10.5142C16.3476 11.1702 16.3122 11.9858 16.2945 12.9787V16.8262H15.923C15.7284 14.5035 14.9853 12.6418 13.6938 11.2234C12.4022 9.80496 10.7568 9.09574 8.77529 9.09574C6.79376 9.09574 5.90914 9.53901 5.00683 10.4433C4.10453 11.3121 3.66222 12.4645 3.66222 13.9184C3.66222 15.3723 3.87453 15.6028 4.29914 16.3475C4.74145 17.0745 5.44914 17.7837 6.42222 18.4752C7.41299 19.1489 8.7576 19.8582 10.4561 20.6028C13.1099 21.773 14.9853 22.9965 16.0468 24.273C17.1438 25.5142 17.6922 27.039 17.6922 28.8298C17.6922 30.6206 16.9138 32.9255 15.3745 34.2553C13.853 35.5496 11.8007 36.2057 9.18222 36.2057L9.12914 36.1702ZM27.6353 36.1702C26.0253 36.1702 24.7338 35.7624 23.7961 34.9291C22.8761 34.1135 22.4161 32.9787 22.4161 31.5248C22.4161 30.0709 22.6814 29.539 23.1945 28.8298C23.743 28.1028 24.433 27.5355 25.2822 27.1099C26.1491 26.6844 27.0515 26.3298 27.9715 26.0638C28.9091 25.7624 29.8114 25.4965 30.6607 25.2482C31.5276 24.9823 32.2353 24.6454 32.7484 24.273C33.2968 23.9007 33.5622 23.422 33.5622 22.8546V20.3901C33.5622 19.0426 33.2261 18.0319 32.5538 17.3582C31.8991 16.6667 30.9438 16.3121 29.6522 16.3121C28.3607 16.3121 27.8299 16.4716 27.1222 16.7908C26.4322 17.1099 26.0784 17.5 26.0784 17.9433C26.0784 18.3865 26.1845 18.5106 26.3791 18.8475C26.5738 19.1489 26.7684 19.4858 26.9453 19.8582C27.1399 20.2128 27.2461 20.5851 27.2461 20.9752C27.2461 21.3652 27.0691 21.8262 26.733 22.1277C26.4145 22.4291 25.9545 22.5709 25.3884 22.5709C24.8222 22.5709 24.2561 22.3759 23.8668 21.9681C23.4953 21.5426 23.3007 21.0106 23.3007 20.3546C23.3007 19.6986 23.6368 18.7411 24.3091 18.0674C24.9814 17.3759 25.8838 16.8262 26.9984 16.4184C28.113 16.0284 29.3691 15.8156 30.7668 15.8156C32.1645 15.8156 33.5091 16.0638 34.4645 16.5603C35.4022 17.039 36.1099 17.7837 36.5522 18.7943C36.9945 19.7872 37.2245 21.0993 37.2245 22.7128V33.5816C37.2245 34.1844 37.313 34.6277 37.4899 34.9291C37.6845 35.195 37.9853 35.3369 38.3922 35.3369C38.7991 35.3369 39.2061 35.2305 39.5776 35C39.9491 34.7695 40.303 34.539 40.6568 34.2908L40.8514 34.5922C40.2853 35.0709 39.7015 35.4255 39.1353 35.6738C38.5691 35.9397 37.8614 36.0816 37.0476 36.0816C34.7653 36.0816 33.6153 34.9823 33.6153 32.8014C32.9253 33.9007 32.0761 34.7163 31.0853 35.266C30.0945 35.8156 28.9622 36.0816 27.6884 36.0816L27.6353 36.1702ZM29.5284 34.6986C30.3422 34.6986 31.103 34.5035 31.7576 34.1312C32.4476 33.7411 33.0491 33.156 33.5445 32.4113V23.5638C33.403 24.0603 33.0491 24.4858 32.5007 24.8404C31.9522 25.1596 31.3153 25.4965 30.6076 25.8511C29.8822 26.1702 29.1922 26.5426 28.5199 26.9681C27.8476 27.3582 27.2814 27.8901 26.8391 28.5461C26.3968 29.2021 26.1668 30.0177 26.1668 31.0106C26.1668 32.0035 26.4499 33.0851 27.0161 33.7411C27.6176 34.3972 28.4491 34.7163 29.5107 34.7163L29.5284 34.6986ZM50.6176 36.1702L43.1691 18.9539C42.8684 18.2624 42.4791 17.7305 42.0191 17.3759C41.5415 17.0035 40.9576 16.8085 40.2676 16.7731V16.4362C40.9576 16.4539 41.6299 16.4894 42.2491 16.5071H47.203C48.0168 16.4894 48.813 16.4539 49.5914 16.4362V16.7731C48.2999 16.8794 47.5038 17.1277 47.203 17.5532C46.9022 17.9433 46.973 18.6879 47.433 19.7518L52.5461 31.5603L52.2453 32.0035L55.6068 23.5638C56.173 22.1454 56.4738 20.9397 56.5091 19.9823C56.5622 18.9894 56.3322 18.227 55.8368 17.695C55.3591 17.1809 54.6338 16.8617 53.643 16.7553V16.4184C54.2622 16.4362 54.793 16.4716 55.2176 16.4894H59.3576C59.8707 16.4716 60.3661 16.4362 60.8084 16.4184V16.7553C59.9945 16.8794 59.2691 17.3227 58.6499 18.0674C58.0307 18.8121 57.3938 20.0177 56.7568 21.6489L51.0068 36.1525H50.6176V36.1702Z" fill="white"/>
<path d="M74.8561 33.1028C74.8561 35.2837 76.0237 36.117 78.2884 36.383C79.0845 36.4716 80.7122 35.9574 81.5084 35.8865C82.4284 35.7979 83.6668 35.9397 84.7637 35.922C85.0822 35.922 85.3653 35.9929 85.6837 36.0461C86.533 36.1525 87.5768 36.0816 88.3376 36.1879C89.1161 36.2057 90.7791 36.1525 91.3807 36.1879V35.8156C90.4076 35.7624 88.4791 35.5674 88.1076 35.195C87.7361 34.8227 87.5414 34.1312 87.5414 33.1383V21.7908C87.5414 20.3191 88.2668 18.9362 89.5053 18.156C90.7437 17.3759 89.5053 18.156 89.523 18.156C90.3191 17.6418 90.8676 17.3759 92.0884 17.3759C93.3091 17.3759 94.2291 17.8546 94.8484 18.7943C95.4676 19.734 95.7861 21.117 95.7861 22.9433V33.1383C95.7861 34.1135 95.5914 34.805 95.2199 35.195C94.8661 35.5674 94.1937 35.7801 93.1676 35.8333V36.0284H93.203C93.6099 36.0284 94.2114 35.9574 95.0607 35.9397C95.9099 35.8865 98.4045 36.0816 99.2537 36.0993C100.103 36.117 99.7845 36.1702 100.138 36.1879C100.97 36.1879 102.775 36.1879 103.199 36.1879V35.8156C102.173 35.7624 100.209 35.5319 99.8376 35.1596C99.4837 34.7518 99.3068 34.078 99.3068 33.1028V23.6525C99.3068 22.6064 99.3422 21.7376 99.413 20.8865C99.4837 20.0355 100.138 18.9539 100.97 18.3688C101.855 17.695 102.686 17.3582 103.907 17.3582C105.128 17.3582 106.03 17.8369 106.631 18.7766C107.251 19.7163 107.569 21.0993 107.569 22.9255V33.1206C107.569 34.0957 107.375 34.7872 107.003 35.1773C106.649 35.5496 105.977 35.7624 104.986 35.8156V36.0106C105.411 36.0106 106.065 35.9752 106.879 35.9574C107.711 35.9043 108.79 36.0461 109.409 36.0461C110.028 36.0461 111.055 36.0816 111.709 36.0993C112.346 36.117 112.063 36.1702 112.611 36.1879C113.195 36.1879 114.098 36.1702 114.398 36.1879V35.8156C113.16 35.7624 112.311 35.5496 111.833 35.1773C111.391 34.7695 111.161 34.0957 111.161 33.1206V23.7057C111.161 21.4007 110.665 19.6099 109.639 18.3333C108.648 17.0745 106.932 16.2766 103.571 16.4362C100.209 16.5957 102.739 16.7199 101.377 17.0213C100.015 17.3227 99.0414 18.1206 98.1745 19.0248C98.2807 18.7766 97.9091 18.4397 97.803 18.2979C96.7768 17.0745 95.3791 16.4007 93.5214 16.4007C91.6637 16.4007 91.0091 16.4539 89.9122 17.0745C88.8861 17.6418 88.0368 16.6489 87.453 17.695L91.5222 16.4007C90.6907 16.4007 86.4268 16.4007 85.7368 16.5248C85.0822 16.773 84.0561 17.039 83.2776 17.039C82.4991 17.039 82.4107 17.1631 81.9684 17.1454C81.5437 17.1454 81.0837 17.2163 80.6591 17.1986V17.3227C81.8445 17.3936 82.6761 17.6596 83.1537 18.1383C83.6491 18.617 83.8968 19.4326 83.8968 20.6028V33.1206C83.8968 33.5993 83.8437 34.0248 83.7199 34.3617C83.5253 34.8227 82.4461 35.461 81.6145 35.5496C80.6237 35.656 79.9868 35.5851 79.5976 35.461C78.9961 35.2837 78.6776 34.9468 78.5891 34.7872C78.4653 34.5922 78.4653 34.5213 78.4653 33.9184V23.0496C78.4653 21.4362 78.2353 20.1241 77.793 19.1312C77.3507 18.1206 76.5191 17.5709 75.5814 17.1099C73.5114 16.0816 69.8668 16.1525 69.8668 16.1525C69.8668 16.1525 73.8122 18.1206 74.4845 19.6631C75.1568 21.2057 74.8207 23.1915 74.8207 23.1915V32.7482" fill="#EEAE0F"/>
<path d="M110.064 35.1596C109.621 34.7518 109.391 34.078 109.391 33.1028V23.6879C109.391 21.383 108.896 19.5922 107.87 18.3156C106.879 17.0567 105.021 16.4184 103.553 16.4184C102.085 16.4184 100.775 16.7908 99.6076 17.5709C98.5107 18.2624 97.6968 19.2553 97.1484 20.5319C96.9007 19.6631 96.5115 18.9184 96.0161 18.2979C95.0253 17.039 93.5922 16.4007 91.7345 16.4007C89.8768 16.4007 89.2576 16.7199 88.1607 17.3404C87.1345 17.9078 86.3384 18.7234 85.7368 19.7872V16.5248C85.0645 16.7021 84.3745 16.8262 83.6845 16.9326C82.9945 17.0035 82.2691 17.039 81.4907 17.039C80.7122 17.039 80.5884 17.0213 80.1461 17.0035C79.7215 17.0035 79.2968 16.9504 78.8722 16.9326V17.305C80.0576 17.3759 80.8891 17.6418 81.3668 18.1206C81.8622 18.5993 82.1099 19.4149 82.1099 20.5851V33.1028C82.1099 33.5816 82.0568 34.0071 81.933 34.344C81.7384 34.805 80.6591 35.4433 79.8276 35.5319C78.8368 35.6383 78.1999 35.5674 77.8107 35.4433C77.2091 35.266 76.8907 34.9291 76.8022 34.7695C76.6784 34.5745 76.6784 34.5035 76.6784 33.9007V23.0319C76.6784 21.4184 76.4484 20.1064 76.0061 19.1135C75.5638 18.1028 74.8561 17.3582 73.9184 16.8794C72.963 16.383 71.6184 16.1348 70.2207 16.1348C68.823 16.1348 67.5668 16.3298 66.4522 16.7376C65.3376 17.1454 64.4353 17.695 63.763 18.3865C63.0907 19.0603 62.7545 20.0177 62.7545 20.6738C62.7545 21.3298 62.9491 21.8617 63.3207 22.2872C63.7099 22.695 64.2761 22.8901 64.8422 22.8901C65.4084 22.8901 65.8684 22.7482 66.1868 22.4468C66.5407 22.1454 66.7176 21.6844 66.7176 21.2943C66.7176 20.9043 66.6115 20.5319 66.4168 20.1773C66.2399 19.805 66.0453 19.4681 65.8507 19.1667C65.6561 18.8298 65.5499 18.7057 65.5499 18.2624C65.5499 17.8191 65.9038 17.4291 66.5938 17.1099C67.3015 16.7908 67.8322 16.6312 69.1238 16.6312C70.4153 16.6312 71.3707 16.9858 72.0253 17.6773C72.6976 18.3511 73.0338 19.3617 73.0338 20.7092V23.1738C73.0338 23.7411 72.7684 24.2199 72.2199 24.5922C71.7068 24.9645 70.9991 25.3014 70.1322 25.5674C69.283 25.8156 68.3807 26.0816 67.443 26.383C66.523 26.6489 65.6207 27.0035 64.7538 27.4291C63.9045 27.8546 63.2145 28.422 62.6661 29.1489C62.153 29.8582 61.8876 30.3901 61.8876 31.844C61.8876 33.2979 62.3476 34.4326 63.2676 35.2482C64.2053 36.0816 65.5322 36.4007 67.1422 36.4007C68.7522 36.4007 69.5484 36.1348 70.5391 35.5851C71.5299 35.0355 72.3791 34.2199 73.0691 33.1206C73.0691 35.3014 74.2368 36.1347 76.5015 36.4007C77.2976 36.4894 78.9607 36.5071 79.7391 36.4362C80.6591 36.3475 81.8445 36.0816 82.9414 36.0638C83.2599 36.0638 83.5784 36.0638 83.8791 36.0638C84.7284 36.0638 85.5245 36.0638 86.2676 36.1347C87.0461 36.1525 87.7184 36.1879 88.3199 36.2057V35.8333C87.3468 35.7801 86.6745 35.5674 86.303 35.195C85.9314 34.8227 85.7368 34.1312 85.7368 33.1383V20.1773C86.3207 19.2908 86.9753 18.5993 87.7184 18.1383C88.5145 17.6241 89.063 17.3582 90.2838 17.3582C91.5045 17.3582 92.4245 17.8369 93.0438 18.7766C93.663 19.7163 93.9815 21.0993 93.9815 22.9255V33.1206C93.9815 34.0957 93.7868 34.7872 93.4153 35.1773C93.0615 35.5496 92.3891 35.7624 91.363 35.8156V36.1879H91.3807C91.7876 36.1525 92.4245 36.117 93.2738 36.0993C94.123 36.0461 94.9191 36.0284 95.7684 36.0284C96.6176 36.0284 97.4491 36.0461 98.263 36.0993C99.0945 36.0993 99.7314 36.1525 100.156 36.1702V35.7979C99.1299 35.7447 98.4399 35.5319 98.0684 35.1596C97.7145 34.7518 97.5376 34.078 97.5376 33.1028V23.6525C97.5376 22.6064 97.4314 21.6667 97.2191 20.8333C97.7145 19.7695 98.3691 18.9539 99.2007 18.3688C100.085 17.695 100.917 17.3582 102.138 17.3582C103.358 17.3582 104.261 17.8369 104.862 18.7766C105.481 19.7163 105.8 21.0993 105.8 22.9255V33.1206C105.8 34.0957 105.605 34.7872 105.234 35.1773C104.88 35.5496 104.208 35.7624 103.217 35.8156V36.1879C103.641 36.1879 104.261 36.1348 105.075 36.117C105.906 36.0638 107.021 36.0461 107.64 36.0461C108.259 36.0461 108.878 36.0638 109.533 36.0816C110.17 36.0993 110.771 36.1347 111.32 36.1525C111.904 36.1525 112.328 36.1525 112.629 36.1879V35.8156C111.391 35.7624 110.541 35.5496 110.064 35.1773V35.1596ZM73.0161 32.7128C72.5207 33.4574 71.9191 34.0426 71.2291 34.4326C70.5745 34.805 69.8138 35 68.9999 35C67.9384 35 67.1068 34.6986 66.5053 34.0426C65.9391 33.3865 65.6561 32.305 65.6561 31.3121C65.6561 30.3191 65.8861 29.5035 66.3284 28.8475C66.7707 28.1915 67.3368 27.6596 68.0091 27.2695C68.6815 26.844 69.3715 26.4716 70.0968 26.1525C70.8045 25.7979 71.4415 25.461 71.9899 25.1418C72.5384 24.7872 72.8922 24.3617 73.0338 23.8652V32.7128H73.0161Z" fill="white"/>
<path d="M3.18451 47.8191C2.60066 47.8191 2.08758 47.6773 1.66297 47.4113C1.23835 47.1454 0.884505 46.7553 0.654505 46.2589C0.424505 45.7624 0.300659 45.195 0.300659 44.5213C0.300659 43.8475 0.424506 43.2447 0.672199 42.7305C0.919891 42.2163 1.27374 41.8085 1.71604 41.5071C2.15835 41.2057 2.67143 41.0638 3.25528 41.0638C3.83912 41.0638 3.76835 41.0993 3.98066 41.1525C4.19297 41.2057 4.36989 41.2766 4.51143 41.3652C4.67066 41.4362 4.79451 41.5071 4.90066 41.578C5.00681 41.6312 5.11297 41.6667 5.20143 41.6667C5.28989 41.6667 5.36066 41.6312 5.41374 41.5425C5.46681 41.4539 5.5022 41.3121 5.51989 41.117H5.89143C5.89143 41.2766 5.89143 41.4716 5.89143 41.6667C5.89143 41.8617 5.89143 42.1099 5.89143 42.4113V43.5106H5.51989C5.44912 43.0851 5.30758 42.7128 5.11297 42.4113C4.91835 42.0922 4.67066 41.8617 4.38758 41.6844C4.08681 41.5071 3.76835 41.4362 3.39681 41.4362C2.7422 41.4362 2.22912 41.7021 1.85758 42.234C1.48604 42.766 1.30912 43.4929 1.30912 44.4326C1.30912 45.3723 1.48604 46.117 1.85758 46.6489C2.22912 47.1809 2.7422 47.4468 3.37912 47.4468C4.01604 47.4468 4.08681 47.3582 4.36989 47.1986C4.67066 47.0213 4.91835 46.773 5.11297 46.4716C5.30758 46.1525 5.44912 45.7979 5.5022 45.3901H5.87374V46.4539C5.87374 46.7553 5.87374 47.0035 5.87374 47.1986C5.87374 47.4113 5.87374 47.5887 5.87374 47.766H5.5022C5.5022 47.5709 5.44912 47.4291 5.39604 47.3404C5.34297 47.2695 5.2722 47.2163 5.20143 47.2163C5.13066 47.2163 4.98912 47.2518 4.88297 47.305C4.75912 47.3582 4.63528 47.4291 4.47604 47.5C4.31681 47.5709 4.13989 47.6418 3.92758 47.695C3.71527 47.7482 3.46758 47.7837 3.18451 47.7837V47.8191ZM7.14758 47.695V47.3404C7.53681 47.3404 7.8022 47.2872 7.94374 47.1986C8.10297 47.1099 8.17374 46.9326 8.17374 46.6844V41.7908C8.17374 41.5071 8.10297 41.3121 7.94374 41.1879C7.8022 41.0638 7.53681 40.9929 7.14758 40.9929V40.6383C7.27143 40.6383 7.39527 40.6383 7.51912 40.656H7.92604C8.13835 40.656 8.33297 40.656 8.52758 40.6206C8.7222 40.6028 8.89912 40.5674 9.05835 40.5142V46.6667C9.05835 46.9149 9.12912 47.0922 9.28835 47.1809C9.44758 47.2695 9.71297 47.3227 10.0845 47.3227V47.6773H9.69528C9.53604 47.6773 9.35912 47.6773 9.1822 47.6596H8.63374C8.35066 47.6596 8.06758 47.6596 7.8022 47.6773C7.51912 47.6773 7.30681 47.6773 7.16527 47.695H7.14758ZM13.0568 47.8191C12.6145 47.8191 12.243 47.7128 11.9068 47.5177C11.5884 47.3227 11.3407 47.0213 11.1637 46.6489C10.9868 46.2766 10.8984 45.8333 10.8984 45.3369C10.8984 44.8404 10.9868 44.3794 11.1637 44.0071C11.3407 43.6348 11.5884 43.3333 11.9245 43.1383C12.2607 42.9433 12.6499 42.8369 13.1276 42.8369C13.6053 42.8369 13.8707 42.9078 14.1537 43.0674C14.4545 43.2269 14.6668 43.4574 14.826 43.7943C14.9853 44.1312 15.056 44.5567 15.0384 45.0886H11.4822V44.734H14.1184C14.1184 44.4326 14.083 44.1667 14.0122 43.9362C13.9414 43.7057 13.8176 43.5284 13.6584 43.3865C13.4991 43.2447 13.3045 43.1915 13.0568 43.1915C12.8091 43.1915 12.473 43.3156 12.243 43.5816C12.013 43.8475 11.8714 44.2553 11.836 44.8227V45.2837C11.836 45.922 11.9599 46.4362 12.2076 46.7908C12.4553 47.1454 12.8091 47.305 13.2868 47.305C13.7645 47.305 13.8707 47.234 14.1007 47.0922C14.3484 46.9326 14.543 46.7021 14.7022 46.383L15.0207 46.5603C14.8614 46.9504 14.6137 47.2695 14.2599 47.4823C13.9237 47.695 13.5168 47.8191 13.0391 47.8191H13.0568ZM17.6037 47.8191C17.1968 47.8191 16.8607 47.7128 16.613 47.5C16.383 47.2872 16.2591 46.9858 16.2591 46.6135C16.2591 46.2411 16.3299 46.0993 16.4537 45.922C16.5953 45.7447 16.7545 45.6028 16.9668 45.4965C17.1791 45.3901 17.4091 45.3014 17.6568 45.2482C17.9045 45.1773 18.1345 45.1064 18.3468 45.0532C18.5591 45 18.736 44.9291 18.8776 44.8582C19.0191 44.7695 19.0899 44.6631 19.0899 44.5213V44.078C19.0899 43.7943 19.0014 43.5816 18.8422 43.422C18.6653 43.2801 18.4176 43.2092 18.0814 43.2092C17.7453 43.2092 17.6391 43.2447 17.4622 43.3156C17.303 43.3865 17.2145 43.4574 17.2145 43.5638C17.2145 43.6702 17.2322 43.6879 17.2853 43.7589C17.3207 43.8121 17.3737 43.883 17.4091 43.9716C17.4445 44.0426 17.4799 44.1312 17.4799 44.2199C17.4799 44.3085 17.4268 44.4326 17.3384 44.5035C17.2499 44.5745 17.1437 44.6099 17.0022 44.6099C16.8607 44.6099 16.7014 44.5567 16.5953 44.4504C16.4891 44.344 16.436 44.2021 16.436 44.0248C16.436 43.8475 16.5245 43.5993 16.6837 43.422C16.8607 43.2447 17.0907 43.1028 17.3737 43.0142C17.6745 42.9078 17.993 42.8546 18.3645 42.8546C18.736 42.8546 19.0545 42.9078 19.2845 43.0319C19.5145 43.156 19.6914 43.3333 19.7976 43.5638C19.9214 43.8121 19.9745 44.1312 19.9745 44.5213V46.9326C19.9745 47.0745 19.9922 47.1809 20.0453 47.2518C20.0984 47.3227 20.1691 47.3582 20.2753 47.3582C20.3814 47.3582 20.4876 47.3404 20.5937 47.2872C20.6999 47.234 20.806 47.1631 20.8945 47.0922L21.0714 47.3936C20.9122 47.5355 20.753 47.6418 20.576 47.7128C20.3991 47.7837 20.2045 47.8369 19.9745 47.8369C19.3907 47.8369 19.0899 47.5709 19.0899 47.039C18.913 47.305 18.7007 47.5 18.453 47.6418C18.2053 47.7837 17.9222 47.8369 17.6037 47.8369V47.8191ZM17.9399 47.2695C18.1699 47.2695 18.3822 47.2163 18.5768 47.1099C18.7714 47.0035 18.9483 46.844 19.0899 46.6312V45C19.0368 45.1064 18.9307 45.195 18.7714 45.2482C18.6299 45.3014 18.453 45.3723 18.276 45.4433C18.0991 45.4965 17.9222 45.5851 17.7453 45.656C17.586 45.7447 17.4445 45.8511 17.3384 45.9929C17.2322 46.1347 17.1791 46.2943 17.1791 46.5071C17.1791 46.7199 17.2499 46.9149 17.3737 47.0567C17.5153 47.1986 17.7099 47.2518 17.9576 47.2518H17.9399V47.2695ZM24.8576 47.695V47.3404C25.123 47.3404 25.2999 47.2872 25.3884 47.1986C25.4768 47.1099 25.5476 46.9326 25.5476 46.6844V44.539C25.5476 44.1312 25.4768 43.8298 25.3176 43.6348C25.1584 43.4397 24.9284 43.3333 24.6276 43.3333C24.3268 43.3333 24.1322 43.4043 23.9199 43.5461C23.7076 43.6879 23.513 43.883 23.3714 44.1489V43.7411C23.5307 43.4574 23.743 43.2447 24.026 43.0851C24.3091 42.9255 24.6099 42.8546 24.9637 42.8546C25.3176 42.8546 25.7953 42.9965 26.0607 43.2979C26.326 43.5993 26.4499 44.0248 26.4499 44.5922V46.6844C26.4499 46.9326 26.5207 47.0922 26.6622 47.1986C26.8037 47.2872 27.0691 47.3404 27.4583 47.3404V47.695H27.0691C26.9099 47.695 26.733 47.695 26.556 47.6773H26.0076C25.8307 47.6773 25.5476 47.6773 25.3353 47.695C25.123 47.695 24.9637 47.695 24.8576 47.7128V47.695ZM21.496 47.695V47.3404C21.8853 47.3404 22.1507 47.2872 22.2922 47.1986C22.4514 47.0922 22.5222 46.9326 22.5222 46.6844V44.1489C22.5222 43.8475 22.4514 43.6525 22.2922 43.5284C22.133 43.4043 21.8676 43.3511 21.496 43.3333V42.9787C21.6199 42.9787 21.7437 42.9787 21.8676 42.9965H22.2745C22.4868 42.9965 22.6814 42.9965 22.876 42.961C23.0707 42.9433 23.2476 42.9078 23.4068 42.8546V46.6489C23.4068 46.8972 23.4599 47.0567 23.5484 47.1631C23.6545 47.2518 23.8314 47.305 24.0968 47.305V47.6596C23.9553 47.6596 23.7784 47.6596 23.5837 47.6418C23.3891 47.6418 23.1768 47.6241 22.9468 47.6241C22.7168 47.6241 22.4337 47.6241 22.1684 47.6418C21.903 47.6418 21.673 47.6418 21.496 47.6596V47.695ZM27.9891 47.695V47.3404C28.3607 47.3404 28.626 47.2872 28.7853 47.1986C28.9445 47.1099 29.0153 46.9326 29.0153 46.6844V44.1489C29.0153 43.8652 28.9445 43.6702 28.7853 43.5461C28.6437 43.422 28.3783 43.3511 27.9891 43.3511V42.9965C28.113 42.9965 28.2368 42.9965 28.3607 43.0142H28.7499C28.9622 43.0142 29.1745 43.0142 29.3691 42.9787C29.5637 42.961 29.7407 42.9255 29.8999 42.8723V46.6667C29.8999 46.9149 29.9707 47.0922 30.1122 47.1809C30.2714 47.2695 30.5368 47.3227 30.9083 47.3227V47.6773H30.5191C30.3599 47.6773 30.183 47.6773 30.006 47.6596H29.4399C29.1745 47.6596 28.8914 47.6596 28.6083 47.6773C28.3253 47.6773 28.113 47.6773 27.9714 47.695H27.9891ZM29.4222 41.8972C29.2453 41.8972 29.1037 41.844 28.9799 41.7199C28.856 41.5957 28.803 41.4539 28.803 41.2766C28.803 41.0993 28.856 40.9574 28.9799 40.8511C29.1037 40.7269 29.2453 40.6738 29.4222 40.6738C29.5991 40.6738 29.7407 40.7269 29.8645 40.8511C29.9883 40.9752 30.0414 41.117 30.0414 41.2766C30.0414 41.4362 29.9883 41.5957 29.8645 41.7199C29.7407 41.844 29.5991 41.8972 29.4222 41.8972ZM34.8537 47.695V47.3404C35.1191 47.3404 35.296 47.2872 35.3845 47.1986C35.473 47.1099 35.5437 46.9326 35.5437 46.6844V44.539C35.5437 44.1312 35.473 43.8298 35.3137 43.6348C35.1545 43.4397 34.9422 43.3333 34.6237 43.3333C34.3053 43.3333 34.1284 43.4043 33.916 43.5461C33.7037 43.6879 33.5091 43.883 33.3676 44.1489V43.7411C33.5268 43.4574 33.7391 43.2447 34.0222 43.0851C34.3053 42.9255 34.606 42.8546 34.9599 42.8546C35.3137 42.8546 35.7914 42.9965 36.0568 43.2979C36.3222 43.5993 36.446 44.0248 36.446 44.5922V46.6844C36.446 46.9326 36.5168 47.0922 36.6584 47.1986C36.7999 47.2872 37.0653 47.3404 37.4545 47.3404V47.695H37.0653C36.906 47.695 36.7291 47.695 36.5522 47.6773H36.0037C35.8268 47.6773 35.5437 47.6773 35.3314 47.695C35.1191 47.695 34.9599 47.695 34.8537 47.7128V47.695ZM31.4922 47.695V47.3404C31.8814 47.3404 32.1468 47.2872 32.2884 47.1986C32.4476 47.0922 32.5184 46.9326 32.5184 46.6844V44.1489C32.5184 43.8475 32.4476 43.6525 32.2884 43.5284C32.1291 43.4043 31.8637 43.3511 31.4922 43.3333V42.9787C31.616 42.9787 31.7399 42.9787 31.8637 42.9965H32.2707C32.483 42.9965 32.6776 42.9965 32.8722 42.961C33.0668 42.9433 33.2437 42.9078 33.403 42.8546V46.6489C33.403 46.8972 33.456 47.0567 33.5445 47.1631C33.6507 47.2518 33.8276 47.305 34.093 47.305V47.6596C33.9514 47.6596 33.7745 47.6596 33.5799 47.6418C33.3853 47.6418 33.173 47.6241 32.943 47.6241C32.713 47.6241 32.4299 47.6241 32.1645 47.6418C31.8991 47.6418 31.6691 47.6418 31.4922 47.6596V47.695ZM39.9668 49.8759C39.3653 49.8759 38.8876 49.7695 38.5337 49.539C38.1799 49.3262 38.0207 49.0426 38.0207 48.6702C38.0207 48.2979 38.1268 48.1206 38.3391 47.8901C38.5514 47.6773 38.8699 47.4823 39.2768 47.3404L39.5245 47.5C39.3299 47.5887 39.1707 47.7305 39.0468 47.9078C38.923 48.1028 38.8699 48.2979 38.8699 48.5284C38.8699 48.7589 38.976 49.078 39.206 49.2553C39.436 49.4326 39.7368 49.5213 40.1437 49.5213C40.5507 49.5213 40.7453 49.4681 40.9753 49.3617C41.223 49.2553 41.4176 49.1135 41.5591 48.9184C41.7007 48.7234 41.7714 48.5106 41.7714 48.2801C41.7714 48.0496 41.7007 47.8901 41.5591 47.766C41.4176 47.6596 41.223 47.6064 40.9399 47.6064H40.0022C39.6307 47.6064 39.3299 47.5355 39.1176 47.3936C38.9053 47.2518 38.7814 47.0567 38.7814 46.8262C38.7814 46.5957 38.8522 46.4716 38.976 46.3298C39.1176 46.1702 39.3122 46.0284 39.5599 45.8865L39.8783 45.9397C39.7368 46.0106 39.6484 46.0993 39.5776 46.1879C39.5245 46.2766 39.4891 46.3652 39.4891 46.4539C39.4891 46.5426 39.5422 46.6667 39.6307 46.7199C39.7191 46.773 39.8607 46.8085 40.0553 46.8085H41.0814C41.5768 46.8085 41.9307 46.9149 42.1783 47.1099C42.426 47.305 42.5676 47.6064 42.5676 47.9965C42.5676 48.3865 42.4614 48.6879 42.2314 48.9716C42.0191 49.2553 41.7007 49.4858 41.3114 49.6454C40.9222 49.805 40.4799 49.8936 39.9668 49.8936V49.8759ZM40.0553 45.9752C39.5068 45.9752 39.0645 45.8333 38.746 45.5674C38.4276 45.2837 38.286 44.8936 38.286 44.4149C38.286 43.9362 38.4453 43.5461 38.746 43.2624C39.0645 42.9965 39.4891 42.8546 40.0553 42.8546C40.6214 42.8546 41.0284 42.9965 41.3468 43.2624C41.6653 43.5284 41.8245 43.9184 41.8245 44.4149C41.8245 44.9113 41.6653 45.2837 41.3468 45.5674C41.0284 45.8333 40.6037 45.9752 40.0553 45.9752ZM40.0553 45.6383C40.356 45.6383 40.5684 45.5319 40.7099 45.3369C40.8514 45.1418 40.9222 44.8227 40.9222 44.4149C40.9222 44.0071 40.8514 43.6879 40.7099 43.4929C40.5684 43.2979 40.356 43.1915 40.0553 43.1915C39.7545 43.1915 39.5422 43.2979 39.4007 43.4929C39.2591 43.6879 39.1884 43.9894 39.1884 44.4149C39.1884 44.8404 39.2591 45.1418 39.4007 45.3369C39.5422 45.5319 39.7722 45.6383 40.0553 45.6383ZM42.656 44.078C42.5322 44.078 42.4437 44.0426 42.3907 43.9716C42.3376 43.9007 42.2845 43.8121 42.2668 43.7057C42.2314 43.5993 42.2137 43.5106 42.1783 43.4397C42.143 43.3688 42.1076 43.3156 42.0368 43.3156C41.966 43.3156 41.9484 43.3333 41.8776 43.3865C41.8068 43.422 41.736 43.4752 41.6653 43.5461C41.5945 43.617 41.5237 43.6879 41.4707 43.7943L41.3114 43.5638C41.4353 43.3688 41.6122 43.2092 41.8245 43.0851C42.0368 42.9433 42.2668 42.8901 42.4791 42.8901C42.6914 42.8901 42.8153 42.9433 42.9214 43.0674C43.0276 43.1738 43.0807 43.3333 43.0807 43.5461C43.0807 43.7589 43.0453 43.8652 42.9568 43.9716C42.886 44.078 42.7799 44.1135 42.656 44.1135V44.078Z" fill="#FFB222"/>
<path d="M69.9326 29.8486C70.6942 29.4079 71.1334 28.7414 70.9135 28.3598C70.6937 27.9781 69.898 28.026 69.1365 28.4666C68.3749 28.9073 67.9357 29.5739 68.1556 29.9555C68.3754 30.3371 69.171 30.2893 69.9326 29.8486Z" fill="#FFB222"/>
<path d="M114.894 26.5071L112.629 28.7411V24.2908L114.894 26.5248V26.5071Z" fill="white"/>
<path d="M78.2884 12.0922C78.2884 12.0922 77.8461 5.33688 79.9161 2.62411C81.9861 -0.0886523 84.3214 0.0709215 86.3207 1.61347C88.3199 3.15603 88.7091 5.33688 86.763 7.89007C84.8168 10.4255 78.3061 12.0922 78.3061 12.0922H78.2884Z" stroke="#FFB222" stroke-width="0.70922"/>
<path d="M88.0191 4.78724C88.0191 4.78724 81.8799 7.39362 78.2884 12.0922" stroke="#FFB222" stroke-width="0.70922"/>
<path d="M78.713 12.0745C78.713 12.0745 81.5438 5.92199 84.6576 4.53901C87.7714 3.15603 89.7353 4.39717 90.7614 6.70213C91.7876 9.0071 91.0799 11.117 88.1607 12.4114C85.2414 13.7057 78.7307 12.0567 78.7307 12.0567L78.713 12.0745Z" stroke="#FFB222" stroke-width="0.70922"/>
<path d="M90.7438 10.3191C90.7438 10.3191 84.1091 9.66312 78.713 12.0745" stroke="#FFB222" stroke-width="0.70922"/>
</g>
<defs>
<clipPath id="clip0_157_605">
<rect width="115" height="50" fill="white"/>
</clipPath>
</defs>
</svg>
