<svg width="192" height="167" viewBox="0 0 192 167" fill="none" xmlns="http://www.w3.org/2000/svg">
<path d="M96.0957 76.4307L102.196 76.457L96.0957 87.5225V87.8701L96 87.6963L95.9043 87.8701V87.5225L89.8037 76.457L95.9043 76.4307H96.0957ZM108.488 62.7031L104.484 71.0918H87.5156L83.5117 62.7031H108.488ZM54.2744 67.2783H36.0361V54.8857L37.916 53.0049L40.5303 51.1221L76.457 43.4453L54.2744 67.2783ZM151.47 51.1221L154.084 53.0049L155.964 54.8857V67.2783H137.726L115.543 43.4453L151.47 51.1221ZM112.438 50.3096L110.396 57.9365H81.6045L79.5615 50.3096H112.438ZM84.8457 28.3828L76.457 30.6309L14.7969 14.1094L2.57812 21.1641V41.374L15.0625 46.4316L13.0137 48.3799L2.57812 44.2637L0 43.4453V19.8145L11.4395 13.21L34.3193 0L84.8457 28.3828ZM180.561 13.21L192 19.8145V43.4453L189.422 44.2637L178.986 48.3799L176.938 46.4316L189.422 41.374V21.1641L177.203 14.1094L115.543 30.6309L107.154 28.3828L157.681 0L180.561 13.21ZM79.6738 38.8594L43.8535 47.0684L50.1445 40.7764L84.8457 32.0322L79.6738 38.8594ZM141.855 40.7764L148.147 47.0684L112.326 38.8594L107.154 32.0322L141.855 40.7764ZM109.633 45.7334H82.3672L92.4727 28.2305L96 28.3779L99.5273 28.2305L109.633 45.7334ZM102.769 21.71L99.5273 24.9512H92.4727L89.2314 21.71H102.769ZM100.29 6.67285L109.633 16.0156L107.154 18.4941H84.8457L82.3672 16.0156L91.71 6.67285H100.29Z" fill="#021132"/>
<rect x="36" y="109" width="0.999995" height="120" transform="rotate(-90 36 109)" fill="#021132"/>
<rect x="93.0447" y="108.744" width="4.40597" height="4.40597" transform="rotate(-45 93.0447 108.744)" fill="#021132"/>
<path d="M138.7 120.061V138.38H137.2V121.579H137.067L131.728 130.86H131.043L124.976 123.018H124.843L125.329 138.38H123.828L124.38 119.695H124.821L131.772 129.081H131.904L137.111 120.061H138.7Z" fill="#021132"/>
<path d="M104.455 138.312L111.444 120.126H113.054L120.043 138.312H118.146L114.925 129.791H109.028L106.352 138.312H104.455ZM111.625 121.477L109.209 129.167H114.691L111.781 121.477H111.625Z" fill="#021132"/>
<path d="M87.435 120.126H89.3834L96.4759 136.286H96.6318L102.581 120.126H104.53L96.268 138.676H95.6965L87.435 120.126Z" fill="#021132"/>
<path d="M71.5999 138.312L78.5884 120.126H80.1991L87.1877 138.312H85.2912L82.0697 129.791H76.1723L73.4964 138.312H71.5999ZM78.7702 121.477L76.3541 129.167H81.8359L78.9261 121.477H78.7702Z" fill="#021132"/>
<path d="M56.0556 138.132L56.2411 136.56H56.4266C57.2305 137.154 58.1375 137.617 59.1475 137.949C60.1575 138.28 61.1572 138.446 62.1466 138.446C63.5482 138.446 64.6819 138.123 65.5476 137.477C66.4134 136.814 66.8462 135.932 66.8462 134.832C66.8462 134.221 66.6813 133.653 66.3515 133.13C66.0423 132.606 65.5167 132.073 64.7747 131.532C64.0532 130.991 63.0535 130.406 61.7756 129.777C60.8892 129.341 60.0441 128.887 59.2402 128.415C58.4363 127.926 57.7767 127.368 57.2614 126.739C56.7461 126.093 56.4885 125.325 56.4885 124.434C56.4885 123.107 57.0553 122.042 58.189 121.239C59.3227 120.418 60.8171 120.008 62.6722 120.008C63.4967 120.008 64.383 120.087 65.3312 120.244C66.2794 120.384 67.0111 120.567 67.5264 120.794L67.3719 122.261H67.1863C66.0114 121.178 64.5067 120.637 62.6722 120.637C61.353 120.637 60.2915 120.925 59.4876 121.501C58.6837 122.06 58.2817 122.819 58.2817 123.78C58.2817 124.495 58.4982 125.115 58.931 125.639C59.3845 126.145 59.9617 126.608 60.6625 127.027C61.3633 127.429 62.1157 127.822 62.9196 128.206C63.8471 128.66 64.7438 129.14 65.6095 129.646C66.4958 130.153 67.2173 130.764 67.7738 131.48C68.3509 132.178 68.6395 133.06 68.6395 134.125C68.6395 135.103 68.3716 135.967 67.8356 136.718C67.2997 137.451 66.537 138.027 65.5476 138.446C64.5789 138.865 63.4452 139.075 62.1466 139.075C61.3221 139.075 60.3533 138.987 59.2402 138.813C58.1272 138.638 57.0656 138.411 56.0556 138.132Z" fill="#021132"/>
<path d="M137.14 120.086L131.913 129.03H131.78L124.802 119.721H124.359L123.805 138.353H125.312L124.824 123.035H124.957L131.049 130.804H131.735L137.096 121.6H137.229V138.353H138.735V120.086H137.14ZM139.081 138.761H136.883V122.963L131.945 131.212H130.864L125.208 124.205L125.671 138.761H123.447L124.025 119.313H124.986L131.816 128.364L136.93 119.679H139.081V138.761Z" fill="#021132"/>
<path d="M113.333 119.72L120.634 138.718H117.866L114.644 130.196H109.325L106.65 138.718H103.864L111.165 119.72H113.333ZM111.444 120.126L104.455 138.312H106.351L109.027 129.791H114.925L118.146 138.312H120.043L113.055 120.126H111.444ZM111.781 121.477L114.691 129.167H109.21L111.626 121.477H111.781ZM109.762 128.761H114.104L111.732 122.493L109.762 128.761Z" fill="#021132"/>
<path d="M89.6485 119.72L96.5277 135.394L102.298 119.72H105.155L96.5318 139.082H95.4329L86.8097 119.72H89.6485ZM87.435 120.126L95.6965 138.676H96.2681L104.53 120.126H102.581L96.6316 136.285H96.4759L89.3833 120.126H87.435Z" fill="#021132"/>
<path d="M80.4779 119.72L87.7787 138.718H85.0107L81.7891 130.196H76.4702L73.7946 138.718H71.0091L78.3095 119.72H80.4779ZM78.5884 120.126L71.6001 138.312H73.4963L76.1723 129.791H82.0699L85.2911 138.312H87.1877L80.1994 120.126H78.5884ZM78.9261 121.477L81.836 129.167H76.354L78.7705 121.477H78.9261ZM76.907 128.761H81.2484L78.8762 122.493L76.907 128.761Z" fill="#021132"/>
<path d="M68.5463 134.112C68.5463 133.05 68.2625 132.17 67.6956 131.474C67.1489 130.76 66.4403 130.151 65.5697 129.646C64.7193 129.141 63.8382 128.662 62.927 128.21C62.1374 127.827 61.3986 127.435 60.7102 127.034C60.0218 126.616 59.4546 126.155 59.0092 125.65C58.6105 125.161 58.3985 124.587 58.3736 123.929L58.3714 123.796C58.3714 122.838 58.7664 122.081 59.556 121.524C60.3457 120.949 61.3883 120.662 62.6841 120.662L62.8522 120.663C64.5227 120.695 65.9084 121.201 67.0095 122.181L67.1187 122.281H67.3007L67.4527 120.818C67.0097 120.62 66.404 120.456 65.6355 120.324L65.2963 120.27C64.3649 120.113 63.4941 120.035 62.6841 120.035C60.8618 120.035 59.3936 120.444 58.28 121.262C57.1663 122.063 56.6095 123.126 56.6095 124.449L56.6125 124.614C56.6421 125.432 56.8946 126.143 57.3692 126.747C57.8754 127.374 58.523 127.931 59.3126 128.419C60.1023 128.889 60.9327 129.341 61.8034 129.776C63.0588 130.403 64.0408 130.987 64.7495 131.526C65.4784 132.066 65.9948 132.597 66.2985 133.119C66.6225 133.642 66.7844 134.208 66.7844 134.817L66.7796 135.02C66.7298 136.023 66.3061 136.834 65.5088 137.455C64.6583 138.099 63.5446 138.421 62.1678 138.421V138.013C63.4551 138.013 64.4492 137.714 65.1953 137.149C65.9314 136.574 66.3098 135.811 66.3098 134.817C66.3098 134.273 66.1659 133.773 65.8797 133.311L65.8771 133.307L65.874 133.302C65.6409 132.901 65.2535 132.476 64.6916 132.028L64.4399 131.836L64.4347 131.832C63.8431 131.381 63.04 130.89 62.0171 130.359L61.5652 130.129C60.7944 129.744 60.054 129.345 59.3449 128.932L59.0427 128.754L59.0392 128.752L59.0362 128.75C58.2586 128.27 57.6057 127.722 57.0823 127.104L56.9791 126.98L56.9756 126.975C56.4092 126.255 56.1349 125.406 56.1349 124.449C56.1349 123.013 56.747 121.833 57.9756 120.949C59.1942 120.056 60.7793 119.627 62.6841 119.627C63.5263 119.627 64.4246 119.708 65.3773 119.868C66.3295 120.01 67.1032 120.202 67.6717 120.456L67.9538 120.583L67.7348 122.689H66.9102L66.7691 122.557C65.7104 121.567 64.3619 121.07 62.6841 121.07C61.4713 121.07 60.5465 121.338 59.8625 121.835L59.8595 121.837L59.8568 121.839C59.1879 122.311 58.846 122.948 58.8459 123.796L58.8481 123.915C58.8701 124.5 59.0562 124.993 59.3932 125.41C59.8029 125.873 60.3281 126.302 60.9757 126.696C61.4834 126.991 62.0199 127.283 62.5853 127.569L63.1604 127.854L63.1648 127.856C64.0851 128.314 64.9752 128.797 65.8349 129.308C66.7545 129.841 67.5091 130.488 68.0922 131.25C68.7223 132.029 69.0208 132.992 69.0209 134.112L69.0174 134.306C68.9843 135.269 68.703 136.14 68.1628 136.909L68.1601 136.912C67.584 137.713 66.7662 138.336 65.7243 138.784L65.7247 138.784C64.6944 139.237 63.504 139.456 62.1678 139.456C61.4263 139.456 60.582 139.386 59.6374 139.25L59.2264 139.188C58.1137 139.011 57.0503 138.78 56.0369 138.495L55.6743 138.394L55.9372 136.133H56.7266L56.8607 136.233C57.5614 136.759 58.3465 137.175 59.2177 137.484L59.3932 137.545C60.3358 137.859 61.2599 138.013 62.1678 138.013V138.421C61.2566 138.421 60.3365 138.276 59.4075 137.985L59.2216 137.925C58.2295 137.594 57.3386 137.133 56.5489 136.541H56.3665L56.1845 138.108C57.1766 138.386 58.2193 138.613 59.3126 138.787C60.2693 138.939 61.1177 139.025 61.8574 139.044L62.1678 139.048C63.4434 139.048 64.5571 138.839 65.5088 138.421C66.42 138.029 67.1355 137.5 67.6551 136.833L67.7566 136.697C68.2501 135.996 68.5124 135.194 68.5433 134.293L68.5463 134.112Z" fill="#021132"/>
<path d="M66.2459 157.757C65.6014 158.257 64.8977 158.638 64.1348 158.901C63.3851 159.151 62.5696 159.276 61.6884 159.276C60.8729 159.276 60.0968 159.132 59.3603 158.842C58.6368 158.54 57.9989 158.125 57.4465 157.599C56.9072 157.073 56.4731 156.448 56.1443 155.725C55.8155 154.988 55.6511 154.186 55.6511 153.318C55.6511 152.516 55.7958 151.733 56.0851 150.97C56.3877 150.207 56.8151 149.53 57.3676 148.938C57.92 148.346 58.5842 147.872 59.3603 147.517C60.1363 147.162 60.9978 146.985 61.9448 146.985C62.7866 146.985 63.6021 147.142 64.3913 147.458C65.1805 147.761 65.8776 148.201 66.4827 148.78L65.8119 150.812L65.22 150.595C65.2463 150.056 65.1542 149.622 64.9437 149.293C64.7991 149.069 64.6215 148.872 64.411 148.701C64.2006 148.53 63.9638 148.392 63.7008 148.287C63.4377 148.182 63.1615 148.103 62.8721 148.05C62.5828 147.984 62.2934 147.951 62.004 147.951C61.2938 147.951 60.6624 148.09 60.11 148.366C59.5575 148.629 59.0906 148.997 58.7092 149.471C58.3277 149.931 58.0384 150.477 57.8411 151.108C57.6569 151.726 57.5649 152.384 57.5649 153.081C57.5649 153.739 57.6635 154.383 57.8608 155.015C58.0581 155.633 58.3409 156.192 58.7092 156.692C59.0775 157.178 59.5247 157.573 60.0508 157.875C60.5901 158.178 61.2083 158.329 61.9054 158.329C62.7077 158.329 63.4246 158.158 64.0559 157.816C64.7004 157.461 65.3186 156.988 65.9105 156.396L66.2459 157.757ZM70.2928 153.772V154.916C70.2928 155.258 70.2928 155.593 70.2928 155.922C70.3059 156.238 70.3191 156.56 70.3323 156.889C70.3454 157.205 70.3586 157.54 70.3717 157.895C70.7532 157.935 71.1346 157.961 71.516 157.974L72.6604 158.014C73.1733 158.027 73.7258 158.02 74.3176 157.994C74.9095 157.967 75.5606 157.921 76.2709 157.856L75.896 159.118C75.3962 159.079 74.8372 159.039 74.219 159C73.614 158.974 73.0615 158.954 72.5617 158.941C72.3249 158.941 72.029 158.947 71.6739 158.961C71.3319 158.961 70.9702 158.974 70.5887 159L69.405 159.059C69.0235 159.072 68.675 159.085 68.3593 159.099C68.3987 158.309 68.4316 157.448 68.4579 156.514C68.4842 155.567 68.4974 154.653 68.4974 153.772V152.45C68.4974 151.582 68.4842 150.7 68.4579 149.806C68.4316 148.898 68.3987 148.05 68.3593 147.261L70.4309 147.182C70.3914 147.971 70.3586 148.833 70.3323 149.767C70.3059 150.687 70.2928 151.582 70.2928 152.45V153.772ZM85.0874 159.118C84.5876 159.079 84.022 159.039 83.3907 159C82.7725 158.974 82.2135 158.954 81.7136 158.941C81.4769 158.941 81.1809 158.947 80.8258 158.961C80.4838 158.961 80.1221 158.967 79.7407 158.98L78.5766 159.039C78.182 159.066 77.8269 159.085 77.5112 159.099C77.5507 158.309 77.5836 157.448 77.6099 156.514C77.6362 155.567 77.6493 154.646 77.6493 153.752V152.509C77.6493 151.641 77.6362 150.733 77.6099 149.786C77.5836 148.839 77.5507 147.971 77.5112 147.182C77.748 147.195 78.0439 147.215 78.3991 147.241C78.7673 147.254 79.1488 147.267 79.5434 147.281C79.9511 147.281 80.3391 147.287 80.7074 147.3C81.0889 147.3 81.4111 147.3 81.6742 147.3C81.9372 147.3 82.2266 147.294 82.5423 147.281L83.4893 147.241C83.805 147.228 84.1141 147.215 84.4166 147.202C84.7191 147.175 85.0019 147.156 85.265 147.142L84.8507 148.366C84.3245 148.326 83.7984 148.293 83.2723 148.267C82.7593 148.241 82.2332 148.234 81.6939 148.247C81.2862 148.26 80.9245 148.274 80.6088 148.287C80.2931 148.287 79.9445 148.3 79.5631 148.326C79.5236 148.971 79.4908 149.609 79.4645 150.24C79.4513 150.858 79.4447 151.549 79.4447 152.312C79.7473 152.338 80.0629 152.358 80.3918 152.371C80.7206 152.371 81.0823 152.371 81.4769 152.371C81.8583 152.371 82.299 152.358 82.7988 152.331C83.3117 152.305 83.9036 152.259 84.5744 152.193L84.2193 153.436C83.7589 153.397 83.292 153.364 82.8185 153.338C82.345 153.311 81.8912 153.298 81.4572 153.298C81.1283 153.298 80.7929 153.305 80.4509 153.318C80.1221 153.331 79.7867 153.351 79.4447 153.377V153.791C79.4447 154.541 79.4513 155.238 79.4645 155.883C79.4776 156.514 79.4973 157.191 79.5236 157.915C79.9182 157.941 80.3063 157.961 80.6877 157.974C81.0691 157.987 81.444 158 81.8123 158.014C82.3384 158.014 82.8974 158.007 83.4893 157.994C84.0944 157.967 84.752 157.921 85.4623 157.856L85.0874 159.118ZM89.0999 154.62C88.7711 155.422 88.4817 156.185 88.2318 156.909C87.9819 157.619 87.7254 158.349 87.4624 159.099L86.0221 159C86.1931 158.645 86.3575 158.296 86.5153 157.954C86.6863 157.599 86.8573 157.237 87.0283 156.869C87.1993 156.501 87.3703 156.113 87.5413 155.705C87.7123 155.297 87.8898 154.85 88.074 154.364L89.021 151.858C89.3367 151.029 89.6326 150.24 89.9088 149.49C90.1982 148.741 90.4744 147.997 90.7375 147.261L92.5329 147.182C92.796 147.892 93.0722 148.642 93.3615 149.431C93.6509 150.22 93.96 151.029 94.2888 151.858L95.2753 154.324C95.6173 155.205 95.9593 156.041 96.3013 156.83C96.6564 157.606 96.9918 158.329 97.3075 159L95.1964 159.099C94.9333 158.349 94.6637 157.619 94.3875 156.909C94.1244 156.198 93.8219 155.429 93.4799 154.6C92.7828 154.561 92.0528 154.541 91.2899 154.541C90.9479 154.541 90.6125 154.548 90.2837 154.561C89.9549 154.574 89.5603 154.594 89.0999 154.62ZM89.5143 153.535C89.8168 153.561 90.1193 153.581 90.4218 153.594C90.7375 153.594 91.0269 153.594 91.2899 153.594C91.6056 153.594 91.9015 153.594 92.1778 153.594C92.454 153.581 92.7499 153.561 93.0656 153.535L92.5526 152.174C92.329 151.595 92.1251 151.082 91.941 150.635C91.7569 150.187 91.5464 149.701 91.3096 149.175C91.086 149.674 90.8756 150.155 90.6783 150.615C90.4942 151.075 90.2837 151.595 90.047 152.174L89.5143 153.535ZM99.7945 149.727C99.7682 150.201 99.755 150.648 99.755 151.069V152.45V153.772C99.755 154.653 99.7616 155.547 99.7748 156.455C99.8011 157.362 99.8405 158.211 99.8931 159L98.5318 159.099C98.5712 158.309 98.6041 157.448 98.6304 156.514C98.6567 155.567 98.6699 154.653 98.6699 153.772V152.45C98.6699 151.582 98.6567 150.7 98.6304 149.806C98.6041 148.898 98.5712 148.05 98.5318 147.261L100.327 147.182C100.788 147.84 101.268 148.517 101.767 149.214C102.28 149.898 102.8 150.595 103.326 151.305L105.615 154.324C105.812 154.574 105.976 154.791 106.108 154.975C106.253 155.146 106.384 155.311 106.503 155.468C106.634 155.626 106.759 155.791 106.877 155.962C107.009 156.119 107.167 156.304 107.351 156.514C107.364 156.08 107.371 155.633 107.371 155.172C107.384 154.712 107.39 154.245 107.39 153.772V152.45C107.39 151.582 107.371 150.7 107.331 149.806C107.305 148.898 107.272 148.05 107.233 147.261L108.594 147.182C108.554 147.971 108.522 148.833 108.495 149.767C108.469 150.687 108.456 151.582 108.456 152.45V153.772C108.456 154.653 108.469 155.547 108.495 156.455C108.522 157.362 108.554 158.211 108.594 159L106.838 159.099C106.378 158.428 105.884 157.744 105.358 157.047C104.845 156.35 104.326 155.646 103.8 154.936L101.531 151.917C101.36 151.693 101.202 151.496 101.057 151.325C100.926 151.141 100.794 150.963 100.663 150.792C100.544 150.621 100.413 150.457 100.268 150.299C100.123 150.128 99.9655 149.938 99.7945 149.727ZM112.836 153.772C112.836 154.653 112.849 155.547 112.876 156.455C112.902 157.362 112.935 158.211 112.974 159L110.903 159.099C110.942 158.309 110.975 157.448 111.001 156.514C111.028 155.567 111.041 154.653 111.041 153.772V152.529C111.041 151.661 111.028 150.766 111.001 149.845C110.975 148.912 110.942 148.05 110.903 147.261L112.974 147.182C112.935 147.971 112.902 148.846 112.876 149.806C112.849 150.753 112.836 151.661 112.836 152.529V153.772ZM116.557 149.727C116.531 150.201 116.518 150.648 116.518 151.069V152.45V153.772C116.518 154.653 116.524 155.547 116.537 156.455C116.564 157.362 116.603 158.211 116.656 159L115.294 159.099C115.334 158.309 115.367 157.448 115.393 156.514C115.419 155.567 115.432 154.653 115.432 153.772V152.45C115.432 151.582 115.419 150.7 115.393 149.806C115.367 148.898 115.334 148.05 115.294 147.261L117.09 147.182C117.55 147.84 118.03 148.517 118.53 149.214C119.043 149.898 119.562 150.595 120.089 151.305L122.377 154.324C122.575 154.574 122.739 154.791 122.87 154.975C123.015 155.146 123.147 155.311 123.265 155.468C123.397 155.626 123.522 155.791 123.64 155.962C123.771 156.119 123.929 156.304 124.113 156.514C124.127 156.08 124.133 155.633 124.133 155.172C124.146 154.712 124.153 154.245 124.153 153.772V152.45C124.153 151.582 124.133 150.7 124.094 149.806C124.067 148.898 124.035 148.05 123.995 147.261L125.356 147.182C125.317 147.971 125.284 148.833 125.258 149.767C125.231 150.687 125.218 151.582 125.218 152.45V153.772C125.218 154.653 125.231 155.547 125.258 156.455C125.284 157.362 125.317 158.211 125.356 159L123.6 159.099C123.14 158.428 122.647 157.744 122.121 157.047C121.608 156.35 121.088 155.646 120.562 154.936L118.293 151.917C118.122 151.693 117.964 151.496 117.82 151.325C117.688 151.141 117.557 150.963 117.425 150.792C117.307 150.621 117.175 150.457 117.03 150.299C116.886 150.128 116.728 149.938 116.557 149.727ZM136.267 157.362C136.267 157.06 136.261 156.738 136.248 156.396C136.248 156.041 136.241 155.685 136.228 155.33C136.228 154.975 136.215 154.64 136.188 154.324C136.175 153.995 136.162 153.712 136.149 153.476L138.142 153.397C138.115 153.87 138.096 154.383 138.082 154.936C138.069 155.488 138.063 156.06 138.063 156.652V157.698C137.431 158.237 136.695 158.638 135.853 158.901C135.011 159.151 134.117 159.276 133.17 159.276C132.354 159.276 131.578 159.132 130.842 158.842C130.118 158.553 129.48 158.145 128.928 157.619C128.389 157.093 127.955 156.468 127.626 155.745C127.31 155.008 127.146 154.206 127.133 153.338C127.119 152.535 127.264 151.753 127.567 150.99C127.869 150.227 128.29 149.549 128.829 148.958C129.382 148.366 130.039 147.892 130.802 147.537C131.578 147.169 132.433 146.985 133.367 146.985C134.314 146.985 135.182 147.142 135.971 147.458C136.774 147.774 137.477 148.221 138.082 148.8L137.431 150.753L136.84 150.536C136.866 150.247 136.833 149.977 136.741 149.727C136.662 149.477 136.544 149.26 136.386 149.076C136.07 148.695 135.643 148.412 135.103 148.228C134.577 148.043 134.044 147.951 133.505 147.951C132.834 147.951 132.216 148.09 131.651 148.366C131.098 148.642 130.625 149.017 130.23 149.49C129.849 149.951 129.553 150.497 129.342 151.128C129.132 151.746 129.033 152.404 129.046 153.101C129.059 153.758 129.158 154.396 129.342 155.015C129.526 155.633 129.796 156.192 130.151 156.692C130.519 157.178 130.967 157.573 131.493 157.875C132.019 158.165 132.631 158.309 133.328 158.309C133.88 158.309 134.413 158.224 134.926 158.053C135.439 157.882 135.886 157.652 136.267 157.362Z" fill="#021132"/>
</svg>
