<svg width="192" height="140" viewBox="0 0 192 140" fill="none" xmlns="http://www.w3.org/2000/svg">
<path d="M96.0957 76.4307L102.196 76.457L96.0957 87.5225V87.8701L96 87.6963L95.9043 87.8701V87.5225L89.8037 76.457L95.9043 76.4307H96.0957ZM108.488 62.7031L104.484 71.0918H87.5156L83.5117 62.7031H108.488ZM54.2744 67.2783H36.0361V54.8857L37.916 53.0049L40.5303 51.1221L76.457 43.4453L54.2744 67.2783ZM151.47 51.1221L154.084 53.0049L155.964 54.8857V67.2783H137.726L115.543 43.4453L151.47 51.1221ZM112.438 50.3096L110.396 57.9365H81.6045L79.5615 50.3096H112.438ZM84.8457 28.3828L76.457 30.6309L14.7969 14.1094L2.57812 21.1641V41.374L15.0625 46.4316L13.0137 48.3799L2.57812 44.2637L0 43.4453V19.8145L11.4395 13.21L34.3193 0L84.8457 28.3828ZM180.561 13.21L192 19.8145V43.4453L189.422 44.2637L178.986 48.3799L176.938 46.4316L189.422 41.374V21.1641L177.203 14.1094L115.543 30.6309L107.154 28.3828L157.681 0L180.561 13.21ZM79.6738 38.8594L43.8535 47.0684L50.1445 40.7764L84.8457 32.0322L79.6738 38.8594ZM141.855 40.7764L148.147 47.0684L112.326 38.8594L107.154 32.0322L141.855 40.7764ZM109.633 45.7334H82.3672L92.4727 28.2305L96 28.3779L99.5273 28.2305L109.633 45.7334ZM102.769 21.71L99.5273 24.9512H92.4727L89.2314 21.71H102.769ZM100.29 6.67285L109.633 16.0156L107.154 18.4941H84.8457L82.3672 16.0156L91.71 6.67285H100.29Z" fill="#EAD166"/>
<rect x="36" y="109" width="0.999995" height="120" transform="rotate(-90 36 109)" fill="#EAD166"/>
<rect x="93.0447" y="108.744" width="4.40597" height="4.40597" transform="rotate(-45 93.0447 108.744)" fill="#EAD166"/>
<path d="M138.7 120.061V138.38H137.2V121.579H137.067L131.728 130.86H131.043L124.976 123.018H124.843L125.329 138.38H123.828L124.38 119.695H124.821L131.772 129.081H131.904L137.111 120.061H138.7Z" fill="#EAD166"/>
<path d="M104.455 138.312L111.444 120.126H113.054L120.043 138.312H118.146L114.925 129.791H109.028L106.352 138.312H104.455ZM111.625 121.477L109.209 129.167H114.691L111.781 121.477H111.625Z" fill="#EAD166"/>
<path d="M87.435 120.126H89.3834L96.4759 136.286H96.6318L102.581 120.126H104.53L96.268 138.676H95.6965L87.435 120.126Z" fill="#EAD166"/>
<path d="M71.5999 138.312L78.5884 120.126H80.1991L87.1877 138.312H85.2912L82.0697 129.791H76.1723L73.4964 138.312H71.5999ZM78.7702 121.477L76.3541 129.167H81.8359L78.9261 121.477H78.7702Z" fill="#EAD166"/>
<path d="M56.0556 138.132L56.2411 136.56H56.4266C57.2305 137.154 58.1375 137.617 59.1475 137.949C60.1575 138.28 61.1572 138.446 62.1466 138.446C63.5482 138.446 64.6819 138.123 65.5476 137.477C66.4134 136.814 66.8462 135.932 66.8462 134.832C66.8462 134.221 66.6813 133.653 66.3515 133.13C66.0423 132.606 65.5167 132.073 64.7747 131.532C64.0532 130.991 63.0535 130.406 61.7756 129.777C60.8892 129.341 60.0441 128.887 59.2402 128.415C58.4363 127.926 57.7767 127.368 57.2614 126.739C56.7461 126.093 56.4885 125.325 56.4885 124.434C56.4885 123.107 57.0553 122.042 58.189 121.239C59.3227 120.419 60.8171 120.008 62.6722 120.008C63.4967 120.008 64.383 120.087 65.3312 120.244C66.2794 120.384 67.0111 120.567 67.5264 120.794L67.3719 122.261H67.1863C66.0114 121.178 64.5067 120.637 62.6722 120.637C61.353 120.637 60.2915 120.925 59.4876 121.501C58.6837 122.06 58.2817 122.819 58.2817 123.78C58.2817 124.495 58.4982 125.115 58.931 125.639C59.3845 126.145 59.9617 126.608 60.6625 127.027C61.3633 127.429 62.1157 127.822 62.9196 128.206C63.8471 128.66 64.7438 129.14 65.6095 129.646C66.4958 130.153 67.2173 130.764 67.7738 131.48C68.3509 132.178 68.6395 133.06 68.6395 134.125C68.6395 135.103 68.3716 135.967 67.8356 136.718C67.2997 137.451 66.537 138.027 65.5476 138.446C64.5789 138.865 63.4452 139.075 62.1466 139.075C61.3221 139.075 60.3533 138.987 59.2402 138.813C58.1272 138.638 57.0656 138.411 56.0556 138.132Z" fill="#EAD166"/>
<path d="M137.14 120.086L131.913 129.03H131.78L124.802 119.721H124.359L123.805 138.353H125.312L124.824 123.035H124.957L131.049 130.804H131.735L137.096 121.6H137.229V138.353H138.735V120.086H137.14ZM139.081 138.761H136.883V122.963L131.945 131.212H130.864L125.208 124.205L125.671 138.761H123.447L124.025 119.313H124.986L131.816 128.364L136.93 119.679H139.081V138.761Z" fill="#EAD166"/>
<path d="M113.333 119.72L120.634 138.718H117.866L114.644 130.197H109.325L106.65 138.718H103.864L111.165 119.72H113.333ZM111.444 120.126L104.455 138.312H106.351L109.027 129.791H114.925L118.146 138.312H120.043L113.055 120.126H111.444ZM111.781 121.477L114.691 129.167H109.21L111.626 121.477H111.781ZM109.762 128.761H114.104L111.732 122.493L109.762 128.761Z" fill="#EAD166"/>
<path d="M89.6485 119.72L96.5277 135.394L102.298 119.72H105.155L96.5318 139.082H95.4329L86.8097 119.72H89.6485ZM87.435 120.126L95.6965 138.676H96.2681L104.53 120.126H102.581L96.6316 136.286H96.4759L89.3833 120.126H87.435Z" fill="#EAD166"/>
<path d="M80.4779 119.72L87.7787 138.718H85.0107L81.7891 130.197H76.4702L73.7946 138.718H71.0091L78.3095 119.72H80.4779ZM78.5884 120.126L71.6001 138.312H73.4963L76.1723 129.791H82.0699L85.2911 138.312H87.1877L80.1994 120.126H78.5884ZM78.9261 121.477L81.836 129.167H76.354L78.7705 121.477H78.9261ZM76.907 128.761H81.2484L78.8762 122.493L76.907 128.761Z" fill="#EAD166"/>
<path d="M68.5463 134.112C68.5463 133.05 68.2625 132.17 67.6956 131.474C67.1489 130.76 66.4403 130.151 65.5697 129.646C64.7193 129.141 63.8382 128.662 62.927 128.21C62.1374 127.827 61.3986 127.435 60.7102 127.034C60.0218 126.616 59.4546 126.155 59.0092 125.65C58.6105 125.161 58.3985 124.587 58.3736 123.929L58.3714 123.796C58.3714 122.838 58.7664 122.081 59.556 121.524C60.3457 120.949 61.3883 120.662 62.6841 120.662L62.8522 120.663C64.5227 120.695 65.9084 121.201 67.0095 122.181L67.1187 122.281H67.3007L67.4527 120.818C67.0097 120.62 66.404 120.456 65.6355 120.324L65.2963 120.27C64.3649 120.113 63.4941 120.035 62.6841 120.035C60.8618 120.035 59.3936 120.444 58.28 121.262C57.1663 122.063 56.6095 123.126 56.6095 124.449L56.6125 124.614C56.6421 125.432 56.8946 126.143 57.3692 126.747C57.8754 127.374 58.523 127.931 59.3126 128.419C60.1023 128.889 60.9327 129.341 61.8034 129.776C63.0588 130.403 64.0408 130.987 64.7495 131.526C65.4784 132.066 65.9948 132.597 66.2985 133.119C66.6225 133.642 66.7844 134.208 66.7844 134.817L66.7796 135.02C66.7298 136.023 66.3061 136.834 65.5088 137.455C64.6583 138.099 63.5446 138.421 62.1678 138.421V138.013C63.4551 138.013 64.4492 137.714 65.1953 137.149C65.9314 136.574 66.3098 135.811 66.3098 134.817C66.3098 134.273 66.1659 133.773 65.8797 133.311L65.8771 133.307L65.874 133.302C65.6409 132.901 65.2535 132.476 64.6916 132.028L64.4399 131.836L64.4347 131.832C63.8431 131.381 63.04 130.89 62.0171 130.359L61.5652 130.129C60.7944 129.744 60.054 129.345 59.3449 128.932L59.0427 128.754L59.0392 128.752L59.0362 128.75C58.2586 128.27 57.6057 127.722 57.0823 127.104L56.9791 126.98L56.9756 126.975C56.4092 126.255 56.1349 125.406 56.1349 124.449C56.1349 123.013 56.747 121.833 57.9756 120.949C59.1942 120.056 60.7793 119.627 62.6841 119.627C63.5263 119.627 64.4246 119.708 65.3773 119.868C66.3295 120.01 67.1032 120.202 67.6717 120.456L67.9538 120.583L67.7348 122.689H66.9102L66.7691 122.557C65.7104 121.567 64.3619 121.07 62.6841 121.07C61.4713 121.07 60.5465 121.338 59.8625 121.835L59.8595 121.837L59.8568 121.839C59.1879 122.311 58.846 122.948 58.8459 123.796L58.8481 123.915C58.8701 124.5 59.0562 124.993 59.3932 125.41C59.8029 125.873 60.3281 126.302 60.9757 126.696C61.4834 126.991 62.0199 127.283 62.5853 127.569L63.1604 127.854L63.1648 127.856C64.0851 128.314 64.9752 128.797 65.8349 129.308C66.7545 129.841 67.5091 130.488 68.0922 131.25C68.7223 132.029 69.0208 132.992 69.0209 134.112L69.0174 134.306C68.9843 135.269 68.703 136.14 68.1628 136.909L68.1601 136.912C67.584 137.713 66.7662 138.336 65.7243 138.784L65.7247 138.784C64.6944 139.237 63.504 139.456 62.1678 139.456C61.4263 139.456 60.582 139.386 59.6374 139.25L59.2264 139.188C58.1137 139.011 57.0503 138.78 56.0369 138.495L55.6743 138.394L55.9372 136.133H56.7266L56.8607 136.233C57.5614 136.759 58.3465 137.175 59.2177 137.484L59.3932 137.545C60.3358 137.859 61.2599 138.013 62.1678 138.013V138.421C61.2566 138.421 60.3365 138.276 59.4075 137.985L59.2216 137.925C58.2295 137.594 57.3386 137.133 56.5489 136.541H56.3665L56.1845 138.108C57.1766 138.386 58.2193 138.613 59.3126 138.787C60.2693 138.939 61.1177 139.025 61.8574 139.044L62.1678 139.048C63.4434 139.048 64.5571 138.839 65.5088 138.421C66.42 138.029 67.1355 137.5 67.6551 136.833L67.7566 136.697C68.2501 135.996 68.5124 135.194 68.5433 134.293L68.5463 134.112Z" fill="#EAD166"/>
</svg>
